<?xml version="1.0" encoding="utf-8"?>
<!-- Generator: Adobe Illustrator 23.0.3, SVG Export Plug-In . SVG Version: 6.00 Build 0)  -->
<svg version="1.1" id="Capa_1" xmlns="http://www.w3.org/2000/svg" xmlns:xlink="http://www.w3.org/1999/xlink" x="0px" y="0px"
	 viewBox="0 0 1200 1200" enable-background="new 0 0 1200 1200" xml:space="preserve">
<path d="M330.102,967.858c-0.68,2.243-7.729,7.048-7.872,4.822c-1.212-18.902,26.556-100.424,45.116-147.439
	c1.055-2.672,7.32-7.866,9.992-6.813C380.009,819.483,344.719,919.738,330.102,967.858z M857.267,871.3
	c6.674,24.341,15.901,48.147,24.82,71.169c0.798,2.06,2.767,3.418,4.849,3.322c4.096-0.189-13.106-53.413-19.641-77.242
	c-2.365-8.619-8.255-28.751-15.335-49.538c-0.926-2.717-3.868-4.171-6.598-3.247C842.643,816.692,854.934,862.795,857.267,871.3z
	 M1138.131,715.868c-3.583,9.703-24.89,24.586-32.085,25.214c-39.707,3.46-114.266,7.708-205.644,12.148
	c16.166,47.753,32.239,95.546,48.725,143.189c18.269,52.795,35.981,105.794,53.891,158.713c0,0-87.299,8.273-87.299,8.273
	c-0.261,0.025-0.577,0.055-0.975,0.055c-5.705,0-15.701-5.494-18.092-10.396c-17.408-35.69-34.98-81.511-50.713-127.329
	c-5.64,0.112-16.237,0.339-30.089,0.636c-237.634,5.099-348.714,6.602-401.142,6.602c-21.51,0-33.134-0.253-39.589-0.615
	c-54.581,155.639-58.249,161.097-62.384,162.98c-6.667,3.036-8.632,12.412-17.426,12.414c-0.301,0-0.602-0.015-0.906-0.044
	l-73.927-7.202l0.453-7.165c3.787-59.811,69.918-314.905,70.183-315.833c-91.263,2.964-160.794,4.801-187.201,4.801
	c-8.186,0-15.281,2.858-16.505-6.644c-23.589-183.15-30.791-420.286-36.577-610.83L50,137.614l39.188-26.784l1.516-0.29
	c177.289-34.045,890.209-11.243,1023.219-5.345c11.513,0.509,33.87,21.585,34.172,32.216
	C1152.363,285.876,1149.635,684.73,1138.131,715.868z M73.321,386.984c4.27,102.125,9.801,204.282,19.758,306.028
	c12.109,0.23,25.624,0.354,40.374,0.384c-0.995-19.366-4.265-54.251-8.282-97.082c-10.9-116.211-27.369-291.832-18.654-377.042
	c1.692-21.212,4.77-48.009,9.745-54.278c3.021-3.804,4.271-5.379,139.429-9.165c75.375-2.111,179.99-4.345,294.574-6.291
	c209.231-3.551,442.593-5.96,483.792-3.694c5.42,0.299,32.944,11.911,38.405,14.236c36.618,15.584,36.658,18.074,36.742,23.034
	c1.732,103.061-4.062,243.463-8.722,356.277c-2.227,53.936-4.169,100.989-4.792,132.725c12.809,0.102,23.767,0.328,32.659,0.693
	c6.392-104.42,8.999-391.297,4.909-534.446c-1.866-4.719-15.34-17.682-20.067-18.335c-206.085-9.136-855.161-25.609-1018.179,4.812
	L65.097,145.29C67.546,225.864,69.953,306.442,73.321,386.984z M1024.475,672.462c0.231-8.814,0.317-17.677,0.173-26.441
	c-0.688-1.545-3.36-4.539-5.063-5.894c-41.309,0.154-82.543,5.333-122.611,15.398c-0.514,0.573-1.207,1.413-1.924,2.331l1.483,17.18
	C944.059,673.863,987.419,672.954,1024.475,672.462z M1039.334,672.284c15.093-0.16,28.985-0.241,41.499-0.23
	c0.624-31.911,2.573-79.134,4.809-133.274c4.599-111.405,10.312-249.755,8.763-352.074c-10.53-6.18-54.273-24.435-61.51-26.047
	c-84.777-4.51-849.551,8.658-905.55,15.384c-2.083,7.25-4.67,27.489-6.034,44.576c-8.581,83.924,7.807,258.673,18.651,374.307
	c4.078,43.482,7.388,78.804,8.363,98.469c120.512-0.234,312.253-5.881,498.661-11.37c82.268-2.422,162.821-4.794,234.666-6.616
	l-1.884-21.846l1.607-2.236c6.308-8.766,8.655-9.366,10.37-9.804c42.299-10.766,85.868-16.236,129.502-16.254h0.003
	c6.862,0,18.111,12.311,18.242,19.964C1039.649,654.195,1039.564,663.262,1039.334,672.284z M414.601,773.279
	c-37.959,1.358-74.254,2.609-107.899,3.719c-0.479,1.694-1.154,4.063-2.13,7.48c-49.347,172.732-64.587,259.513-68.281,302.643
	l57.802,5.632c1.235-1.016,3.154-2.989,4.397-4.267c2.273-2.337,4.003-4.08,5.69-5.295
	C313.137,1065.686,373.532,892.867,414.601,773.279z M430.503,772.707c-3.479,10.128-14.984,43.586-29.392,85.112
	c66.677,7.254,210.852,10.27,317.488,12.497c64.115,1.339,95.439,2.081,110.08,3.001c-14.764-46.703-26.622-89.078-33.186-115.223
	C678.341,763.306,547.372,768.485,430.503,772.707z M841.923,913.929c-3.22-9.564-6.346-19.077-9.37-28.472
	c-13.328-1.151-62.473-2.178-114.203-3.258c-108.243-2.261-255.121-5.329-321.238-12.859c-5.722,16.469-11.798,33.907-17.943,51.461
	C414.753,922.061,836.29,914.046,841.923,913.929z M884.969,753.975c-23.839,1.141-48.712,2.292-74.32,3.443
	c15.564,61.222,57.47,202.51,98.524,287.42c2.385,1.607,4.918,3.108,6.215,3.676l67.539-6.401
	c-15.198-44.878-31.52-92.793-47.844-140.712C917.941,851.08,900.809,800.777,884.969,753.975z M1124.209,710.685
	c1.105-2.99,2.143-11.02,3.108-23.049c-69.827-2.831-269.22,3.036-479.893,9.237c-190.497,5.61-386.583,11.384-506.826,11.384
	c-16.931,0-32.33-0.115-46.023-0.361c2.091,20.355,4.332,40.269,6.762,59.567c86.724,0.622,838.955-26.907,1003.052-41.151
	C1108.846,724.859,1122.587,714.424,1124.209,710.685z M391.191,449.706l18.319,72.376l-57.768,3.237
	c-5.144,0.273-13.031-5.626-14.331-10.726l-15.416-60.33l-25.271,2.69l-3.361,81.262c-0.125,3.035-11.872,12.967-14.808,12.967
	c-0.444,0-48.151-6.939-48.151-6.939l0.212-6.627c0.157-4.946,3.94-121.734,11.759-174.241c1.066-7.162,2.337-14.112,6.112-20.418
	c4.687-7.823,57.642-44.748,76.369-54.987l6.36-3.479l3.631,6.275C363.483,340.233,377.57,395.885,391.191,449.706z
	 M390.688,508.258L376.79,453.35c-12.771-50.459-25.96-102.564-51.164-148.678c-22.985,13.83-60.195,41.308-64.559,46.201
	c-2.257,3.934-3.148,8.986-3.998,14.689c-6.642,44.61-10.438,139.955-11.374,165.902l32.078,4.688
	c0.271-0.19,4.64-92.616,4.64-92.616l50.796-5.406l18.261,71.468C351.777,509.862,390.688,508.258,390.688,508.258z
	 M659.779,418.944c-0.049,0.543-13.408,60.394-24.202,69.27c-15.567,12.801-34.14,21.997-52.397,30.27
	c-34.027,15.419-69.581,27.454-105.473,37.714c-0.561-2.824-0.576-6.118-0.782-9.122c-5.443-79.15-4.996-159.373,1.327-238.442
	c1.047-13.051,16.641-25.422,27.174-31.131c18.991-10.293,39.547-18.127,60.152-24.497c19.26-5.954,40.764-12.069,61.143-10.125
	c2.503,0.239,6.035,1.633,8.662,6.9c4.93,9.883,9.523,44.608,4.674,52.488c-11.714,19.024-22.71,31.139-34.351,43.967
	c-4.715,5.197-9.549,10.522-14.74,16.613l57.703,34.392C653.665,400.217,660.313,413.197,659.779,418.944z M644.891,418.006
	c-0.586-2.105-2.997-6.759-4.315-8.294l-72.093-42.968c8.488-10.39,17.206-20.557,26.223-30.492
	c11.519-12.693,21.486-23.675,32.335-41.177c1.213-5.953-1.419-30.183-4.422-37.591c-38.936-1.829-112.526,32.494-120.965,39.583
	c-2.62,2.2-7.903,9.644-8.608,12.876c-6.003,75.125-6.649,151.419-1.912,226.819c25.95-8.017,102.055-33.018,134.883-59.921
	C631.245,470.967,643.17,426.85,644.891,418.006z M985.202,505.73c0.931,5.016,0.369,5.874-4.056,8.035
	c-29.128,14.226-59.408,26.857-89.995,37.546c-20.83,7.28-42.841,13.732-64.893,13.733c-27.806,0-53.868-12.184-74.871-29.841
	c-51.395-43.201-72.51-119.576-50.206-181.601c22.853-63.561,89.986-108.009,156.292-103.349c3.873,0.272,4.416,0.631,6.14,4.117
	c1.314,2.662,32.312,65.52,38.852,93.087l2.278,9.606l-83.463-3.99c-3.644,0.798-15.317,7.54-17.296,10.404
	c-7.373,13.505-14.754,28.104-16.141,43.564c-1.407,15.668,4.503,30.138,15.05,36.864c11.351,7.235,27.17,5.69,42.577,2.941
	c29.654-5.295,59.192-12.77,87.795-22.22c7.335-2.421,24.521,4.21,27.884,10.746C972.56,457.541,980.652,481.212,985.202,505.73z
	 M969.499,502.898c-4.373-20.836-11.481-40.979-21.167-59.959c-2.153-1.576-8.51-3.935-10.927-4.033
	c-29.108,9.588-59.16,17.18-89.324,22.565c-18.378,3.277-37.531,4.937-53.174-5.039c-15.178-9.675-23.758-29.583-21.863-50.716
	c1.642-18.301,10.138-35.138,17.972-49.48c3.874-7.097,23.024-18.361,30.545-18.02l63.634,3.041
	c-8.174-24.567-26.964-63.962-32.999-76.406c-1.457-0.052-2.91-0.077-4.37-0.077c-56.978,0-112.972,39.081-132.664,93.855
	c-20.273,56.383-1.018,125.86,45.784,165.204c16.356,13.746,34.07,22.481,51.221,25.259c25.429,4.116,51.572-3.935,74.082-11.803
	C914.497,527.418,942.477,515.858,969.499,502.898z"/>
</svg>
